<svg width="16" height="16" viewBox="0 0 16 16" fill="none" xmlns="http://www.w3.org/2000/svg">
<g clip-path="url(#clip0_2_182)">
<path d="M6 14.6667C6.36819 14.6667 6.66667 14.3682 6.66667 14C6.66667 13.6318 6.36819 13.3333 6 13.3333C5.63181 13.3333 5.33334 13.6318 5.33334 14C5.33334 14.3682 5.63181 14.6667 6 14.6667Z" stroke="white" stroke-width="2" stroke-linecap="round" stroke-linejoin="round"/>
<path d="M13.3333 14.6667C13.7015 14.6667 14 14.3682 14 14C14 13.6318 13.7015 13.3333 13.3333 13.3333C12.9651 13.3333 12.6667 13.6318 12.6667 14C12.6667 14.3682 12.9651 14.6667 13.3333 14.6667Z" stroke="white" stroke-width="2" stroke-linecap="round" stroke-linejoin="round"/>
<path d="M0.666664 0.666656H3.33333L5.12 9.59332C5.18096 9.90025 5.34794 10.176 5.59169 10.3722C5.83545 10.5684 6.14046 10.6727 6.45333 10.6667H12.9333C13.2462 10.6727 13.5512 10.5684 13.795 10.3722C14.0387 10.176 14.2057 9.90025 14.2667 9.59332L15.3333 3.99999H4" stroke="white" stroke-width="2" stroke-linecap="round" stroke-linejoin="round"/>
</g>
<defs>
<clipPath id="clip0_2_182">
<rect width="16" height="16" fill="white"/>
</clipPath>
</defs>
</svg>
