<svg width="28" height="28" viewBox="0 0 28 28" fill="none" xmlns="http://www.w3.org/2000/svg">
<g clip-path="url(#clip0_2_230)">
<path d="M26.5595 3.46428C25.4537 4.24429 24.2293 4.84088 22.9336 5.23107C22.2381 4.4314 21.3138 3.86463 20.2857 3.60738C19.2577 3.35014 18.1754 3.41485 17.1853 3.79276C16.1951 4.17066 15.345 4.84353 14.7498 5.72036C14.1545 6.59719 13.8429 7.63567 13.8571 8.69535V9.85011C11.8278 9.90273 9.81695 9.45266 8.00366 8.53997C6.19038 7.62729 4.63096 6.28032 3.46429 4.61904C3.46429 4.61904 -1.15476 15.0119 9.23809 19.6309C6.85989 21.2453 4.02684 22.0547 1.15476 21.9405C11.5476 27.7143 24.25 21.9405 24.25 8.66071C24.2489 8.33905 24.218 8.01819 24.1576 7.70226C25.3362 6.53998 26.1679 5.07253 26.5595 3.46428V3.46428Z" stroke="#85C6EB" stroke-width="2" stroke-linecap="round" stroke-linejoin="round"/>
</g>
<defs>
<clipPath id="clip0_2_230">
<rect width="27.7143" height="27.7143" fill="white"/>
</clipPath>
</defs>
</svg>
