<svg width="28" height="28" viewBox="0 0 28 28" fill="none" xmlns="http://www.w3.org/2000/svg">
<path d="M19.9167 2.30951H8.36905C5.18027 2.30951 2.59525 4.89453 2.59525 8.08332V19.6309C2.59525 22.8197 5.18027 25.4047 8.36905 25.4047H19.9167C23.1055 25.4047 25.6905 22.8197 25.6905 19.6309V8.08332C25.6905 4.89453 23.1055 2.30951 19.9167 2.30951Z" stroke="#85C6EB" stroke-width="2" stroke-linecap="round" stroke-linejoin="round"/>
<path d="M18.7619 13.1297C18.9044 14.0907 18.7403 15.0722 18.2928 15.9346C17.8453 16.797 17.1373 17.4963 16.2695 17.9331C15.4017 18.3699 14.4182 18.5219 13.459 18.3676C12.4998 18.2132 11.6137 17.7603 10.9267 17.0734C10.2397 16.3864 9.7868 15.5002 9.63244 14.541C9.47809 13.5818 9.63013 12.5983 10.0669 11.7305C10.5037 10.8627 11.2031 10.1547 12.0654 9.70722C12.9278 9.25975 13.9093 9.0956 14.8704 9.23811C15.8507 9.38347 16.7582 9.84027 17.459 10.541C18.1597 11.2418 18.6165 12.1494 18.7619 13.1297Z" stroke="#85C6EB" stroke-width="2" stroke-linecap="round" stroke-linejoin="round"/>
<path d="M20.4941 7.50595H20.5063" stroke="#85C6EB" stroke-width="2" stroke-linecap="round" stroke-linejoin="round"/>
</svg>
