<svg width="49" height="49" viewBox="0 0 49 49" fill="none" xmlns="http://www.w3.org/2000/svg">
<path d="M29.6042 20.4167C27.9096 20.4167 26.5417 19.0488 26.5417 17.3542V7.14584C26.5417 5.45125 27.9096 4.08334 29.6042 4.08334C31.2987 4.08334 32.6667 5.45125 32.6667 7.14584V17.3542C32.6667 19.0488 31.2987 20.4167 29.6042 20.4167Z" stroke="#6C5384" stroke-width="2" stroke-linecap="round" stroke-linejoin="round"/>
<path d="M41.8542 20.4167H38.7917V17.3542C38.7917 15.6596 40.1596 14.2917 41.8542 14.2917C43.5487 14.2917 44.9167 15.6596 44.9167 17.3542C44.9167 19.0487 43.5487 20.4167 41.8542 20.4167Z" stroke="#6C5384" stroke-width="2" stroke-linecap="round" stroke-linejoin="round"/>
<path d="M19.3958 28.5833C21.0904 28.5833 22.4583 29.9512 22.4583 31.6458V41.8542C22.4583 43.5487 21.0904 44.9167 19.3958 44.9167C17.7013 44.9167 16.3333 43.5487 16.3333 41.8542V31.6458C16.3333 29.9512 17.7013 28.5833 19.3958 28.5833Z" stroke="#6C5384" stroke-width="2" stroke-linecap="round" stroke-linejoin="round"/>
<path d="M7.14584 28.5833H10.2083V31.6458C10.2083 33.3404 8.84043 34.7083 7.14584 34.7083C5.45126 34.7083 4.08334 33.3404 4.08334 31.6458C4.08334 29.9512 5.45126 28.5833 7.14584 28.5833Z" stroke="#6C5384" stroke-width="2" stroke-linecap="round" stroke-linejoin="round"/>
<path d="M28.5833 29.6042C28.5833 27.9096 29.9513 26.5417 31.6458 26.5417H41.8542C43.5488 26.5417 44.9167 27.9096 44.9167 29.6042C44.9167 31.2988 43.5488 32.6667 41.8542 32.6667H31.6458C29.9513 32.6667 28.5833 31.2988 28.5833 29.6042Z" stroke="#6C5384" stroke-width="2" stroke-linecap="round" stroke-linejoin="round"/>
<path d="M31.6458 38.7917H28.5833V41.8542C28.5833 43.5488 29.9513 44.9167 31.6458 44.9167C33.3404 44.9167 34.7083 43.5488 34.7083 41.8542C34.7083 40.1596 33.3404 38.7917 31.6458 38.7917Z" stroke="#6C5384" stroke-width="2" stroke-linecap="round" stroke-linejoin="round"/>
<path d="M20.4167 19.3958C20.4167 17.7013 19.0488 16.3333 17.3542 16.3333H7.14584C5.45126 16.3333 4.08334 17.7013 4.08334 19.3958C4.08334 21.0904 5.45126 22.4583 7.14584 22.4583H17.3542C19.0488 22.4583 20.4167 21.0904 20.4167 19.3958Z" stroke="#6C5384" stroke-width="2" stroke-linecap="round" stroke-linejoin="round"/>
<path d="M17.3542 10.2083H20.4167V7.14584C20.4167 5.45125 19.0487 4.08334 17.3542 4.08334C15.6596 4.08334 14.2917 5.45125 14.2917 7.14584C14.2917 8.84042 15.6596 10.2083 17.3542 10.2083Z" stroke="#6C5384" stroke-width="2" stroke-linecap="round" stroke-linejoin="round"/>
</svg>
