<svg width="50" height="50" viewBox="0 0 50 50" fill="none" xmlns="http://www.w3.org/2000/svg">
<path d="M35.4167 43.75V39.5833C35.4167 37.3732 34.5387 35.2536 32.9759 33.6908C31.4131 32.128 29.2935 31.25 27.0833 31.25H10.4167C8.20652 31.25 6.08691 32.128 4.52411 33.6908C2.9613 35.2536 2.08333 37.3732 2.08333 39.5833V43.75" stroke="#6C5384" stroke-width="4" stroke-linecap="round" stroke-linejoin="round"/>
<path d="M18.75 22.9167C23.3524 22.9167 27.0833 19.1857 27.0833 14.5833C27.0833 9.98096 23.3524 6.25 18.75 6.25C14.1476 6.25 10.4167 9.98096 10.4167 14.5833C10.4167 19.1857 14.1476 22.9167 18.75 22.9167Z" stroke="#6C5384" stroke-width="4" stroke-linecap="round" stroke-linejoin="round"/>
<path d="M47.9167 43.75V39.5833C47.9153 37.7369 47.3007 35.9433 46.1695 34.484C45.0383 33.0247 43.4544 31.9824 41.6667 31.5208" stroke="#6C5384" stroke-width="4" stroke-linecap="round" stroke-linejoin="round"/>
<path d="M33.3333 6.52084C35.1259 6.9798 36.7147 8.0223 37.8493 9.48398C38.9838 10.9457 39.5997 12.7434 39.5997 14.5938C39.5997 16.4441 38.9838 18.2418 37.8493 19.7035C36.7147 21.1652 35.1259 22.2077 33.3333 22.6667" stroke="#6C5384" stroke-width="4" stroke-linecap="round" stroke-linejoin="round"/>
</svg>
